<mxfile host="Electron" agent="Mozilla/5.0 (Windows NT 10.0; Win64; x64) AppleWebKit/537.36 (KHTML, like Gecko) draw.io/26.0.16 Chrome/132.0.6834.196 Electron/34.2.0 Safari/537.36" version="26.0.16">
  <diagram id="prtHgNgQTEPvFCAcTncT" name="Page-1">
    <mxGraphModel dx="1050" dy="621" grid="1" gridSize="10" guides="1" tooltips="1" connect="1" arrows="1" fold="1" page="1" pageScale="1" pageWidth="827" pageHeight="1169" math="0" shadow="0">
      <root>
        <mxCell id="0" />
        <mxCell id="1" parent="0" />
        <mxCell id="RkQibfMoVkicI0NFBdE6-5" value="Đánh giá phim" style="swimlane;childLayout=stackLayout;resizeParent=1;resizeParentMax=0;startSize=20;html=1;" vertex="1" parent="1">
          <mxGeometry x="240" y="105" width="450" height="620" as="geometry" />
        </mxCell>
        <mxCell id="RkQibfMoVkicI0NFBdE6-6" value="Khách Hàng" style="swimlane;startSize=20;html=1;" vertex="1" parent="RkQibfMoVkicI0NFBdE6-5">
          <mxGeometry y="20" width="200" height="600" as="geometry" />
        </mxCell>
        <mxCell id="RkQibfMoVkicI0NFBdE6-28" style="edgeStyle=orthogonalEdgeStyle;rounded=1;orthogonalLoop=1;jettySize=auto;html=1;exitX=1;exitY=0.5;exitDx=0;exitDy=0;curved=0;endArrow=open;endFill=0;" edge="1" parent="RkQibfMoVkicI0NFBdE6-6" source="RkQibfMoVkicI0NFBdE6-10" target="RkQibfMoVkicI0NFBdE6-14">
          <mxGeometry relative="1" as="geometry" />
        </mxCell>
        <mxCell id="RkQibfMoVkicI0NFBdE6-10" value="" style="ellipse;fillColor=strokeColor;html=1;" vertex="1" parent="RkQibfMoVkicI0NFBdE6-6">
          <mxGeometry x="20" y="35" width="30" height="30" as="geometry" />
        </mxCell>
        <mxCell id="RkQibfMoVkicI0NFBdE6-14" value="Chọn phim&lt;div&gt;muốn đánh giá&lt;/div&gt;" style="html=1;align=center;verticalAlign=top;rounded=1;absoluteArcSize=1;arcSize=10;dashed=0;whiteSpace=wrap;" vertex="1" parent="RkQibfMoVkicI0NFBdE6-6">
          <mxGeometry x="47" y="95" width="106" height="40" as="geometry" />
        </mxCell>
        <mxCell id="RkQibfMoVkicI0NFBdE6-17" value="&lt;div&gt;&lt;span style=&quot;background-color: transparent; color: light-dark(rgb(0, 0, 0), rgb(255, 255, 255));&quot;&gt;Chấm điểm sao&lt;/span&gt;&lt;/div&gt;&lt;div&gt;&lt;span style=&quot;background-color: transparent; color: light-dark(rgb(0, 0, 0), rgb(255, 255, 255));&quot;&gt;và bình luận&lt;/span&gt;&lt;/div&gt;" style="html=1;align=center;verticalAlign=top;rounded=1;absoluteArcSize=1;arcSize=10;dashed=0;whiteSpace=wrap;" vertex="1" parent="RkQibfMoVkicI0NFBdE6-6">
          <mxGeometry x="46.5" y="185" width="106.5" height="38.75" as="geometry" />
        </mxCell>
        <mxCell id="RkQibfMoVkicI0NFBdE6-12" value="" style="ellipse;html=1;shape=endState;fillColor=strokeColor;" vertex="1" parent="RkQibfMoVkicI0NFBdE6-6">
          <mxGeometry x="84.75" y="382.5" width="30" height="30" as="geometry" />
        </mxCell>
        <mxCell id="RkQibfMoVkicI0NFBdE6-27" style="edgeStyle=orthogonalEdgeStyle;rounded=0;orthogonalLoop=1;jettySize=auto;html=1;exitX=0;exitY=0.5;exitDx=0;exitDy=0;entryX=1;entryY=0.5;entryDx=0;entryDy=0;endArrow=open;endFill=0;" edge="1" parent="RkQibfMoVkicI0NFBdE6-5" source="RkQibfMoVkicI0NFBdE6-20" target="RkQibfMoVkicI0NFBdE6-12">
          <mxGeometry relative="1" as="geometry" />
        </mxCell>
        <mxCell id="RkQibfMoVkicI0NFBdE6-29" style="edgeStyle=orthogonalEdgeStyle;rounded=1;orthogonalLoop=1;jettySize=auto;html=1;exitX=1;exitY=0.5;exitDx=0;exitDy=0;entryX=0.5;entryY=0;entryDx=0;entryDy=0;curved=0;endArrow=open;endFill=0;" edge="1" parent="RkQibfMoVkicI0NFBdE6-5" source="RkQibfMoVkicI0NFBdE6-14" target="RkQibfMoVkicI0NFBdE6-15">
          <mxGeometry relative="1" as="geometry" />
        </mxCell>
        <mxCell id="RkQibfMoVkicI0NFBdE6-30" style="edgeStyle=orthogonalEdgeStyle;rounded=0;orthogonalLoop=1;jettySize=auto;html=1;exitX=0;exitY=0.5;exitDx=0;exitDy=0;endArrow=open;endFill=0;" edge="1" parent="RkQibfMoVkicI0NFBdE6-5" source="RkQibfMoVkicI0NFBdE6-15" target="RkQibfMoVkicI0NFBdE6-17">
          <mxGeometry relative="1" as="geometry" />
        </mxCell>
        <mxCell id="RkQibfMoVkicI0NFBdE6-31" style="edgeStyle=orthogonalEdgeStyle;rounded=0;orthogonalLoop=1;jettySize=auto;html=1;exitX=1;exitY=0.5;exitDx=0;exitDy=0;endArrow=open;endFill=0;" edge="1" parent="RkQibfMoVkicI0NFBdE6-5" source="RkQibfMoVkicI0NFBdE6-17" target="RkQibfMoVkicI0NFBdE6-18">
          <mxGeometry relative="1" as="geometry" />
        </mxCell>
        <mxCell id="RkQibfMoVkicI0NFBdE6-7" value="Ứng Dụng" style="swimlane;startSize=20;html=1;" vertex="1" parent="RkQibfMoVkicI0NFBdE6-5">
          <mxGeometry x="200" y="20" width="250" height="600" as="geometry" />
        </mxCell>
        <mxCell id="RkQibfMoVkicI0NFBdE6-15" value="Trả về&lt;div&gt;thông tin&amp;nbsp;&lt;span style=&quot;background-color: transparent; color: light-dark(rgb(0, 0, 0), rgb(255, 255, 255));&quot;&gt;của&amp;nbsp;&lt;/span&gt;&lt;span style=&quot;background-color: transparent; color: light-dark(rgb(0, 0, 0), rgb(255, 255, 255));&quot;&gt;phim&amp;nbsp;&lt;/span&gt;&lt;/div&gt;" style="html=1;align=center;verticalAlign=top;rounded=1;absoluteArcSize=1;arcSize=10;dashed=0;whiteSpace=wrap;" vertex="1" parent="RkQibfMoVkicI0NFBdE6-7">
          <mxGeometry x="73.38" y="135" width="123.25" height="45" as="geometry" />
        </mxCell>
        <mxCell id="RkQibfMoVkicI0NFBdE6-32" style="edgeStyle=orthogonalEdgeStyle;rounded=0;orthogonalLoop=1;jettySize=auto;html=1;exitX=0.5;exitY=1;exitDx=0;exitDy=0;entryX=0.5;entryY=0;entryDx=0;entryDy=0;endArrow=open;endFill=0;" edge="1" parent="RkQibfMoVkicI0NFBdE6-7" source="RkQibfMoVkicI0NFBdE6-18" target="RkQibfMoVkicI0NFBdE6-19">
          <mxGeometry relative="1" as="geometry" />
        </mxCell>
        <mxCell id="RkQibfMoVkicI0NFBdE6-18" value="Kiểm tra&amp;nbsp;&lt;span style=&quot;background-color: transparent; color: light-dark(rgb(0, 0, 0), rgb(255, 255, 255));&quot;&gt;tính hợp lệ&amp;nbsp;&lt;/span&gt;&lt;div&gt;của bình luận&lt;/div&gt;" style="html=1;align=center;verticalAlign=top;rounded=1;absoluteArcSize=1;arcSize=10;dashed=0;whiteSpace=wrap;" vertex="1" parent="RkQibfMoVkicI0NFBdE6-7">
          <mxGeometry x="69.19" y="225" width="131.62" height="45" as="geometry" />
        </mxCell>
        <mxCell id="RkQibfMoVkicI0NFBdE6-24" style="edgeStyle=orthogonalEdgeStyle;rounded=0;orthogonalLoop=1;jettySize=auto;html=1;exitX=0;exitY=0.5;exitDx=0;exitDy=0;endArrow=open;endFill=0;" edge="1" parent="RkQibfMoVkicI0NFBdE6-7" source="RkQibfMoVkicI0NFBdE6-19" target="RkQibfMoVkicI0NFBdE6-20">
          <mxGeometry relative="1" as="geometry" />
        </mxCell>
        <mxCell id="RkQibfMoVkicI0NFBdE6-25" style="edgeStyle=orthogonalEdgeStyle;rounded=0;orthogonalLoop=1;jettySize=auto;html=1;exitX=1;exitY=0.5;exitDx=0;exitDy=0;endArrow=open;endFill=0;" edge="1" parent="RkQibfMoVkicI0NFBdE6-7" source="RkQibfMoVkicI0NFBdE6-19" target="RkQibfMoVkicI0NFBdE6-21">
          <mxGeometry relative="1" as="geometry" />
        </mxCell>
        <mxCell id="RkQibfMoVkicI0NFBdE6-19" value="" style="rhombus;" vertex="1" parent="RkQibfMoVkicI0NFBdE6-7">
          <mxGeometry x="120.00999999999999" y="305" width="30" height="30" as="geometry" />
        </mxCell>
        <mxCell id="RkQibfMoVkicI0NFBdE6-20" value="Hiển thị&lt;div&gt;Thông báo&amp;nbsp;&lt;span style=&quot;background-color: transparent; color: light-dark(rgb(0, 0, 0), rgb(255, 255, 255));&quot;&gt;lỗi&lt;/span&gt;&lt;/div&gt;" style="html=1;align=center;verticalAlign=top;rounded=1;absoluteArcSize=1;arcSize=10;dashed=0;whiteSpace=wrap;" vertex="1" parent="RkQibfMoVkicI0NFBdE6-7">
          <mxGeometry x="11.629999999999999" y="375" width="108.37" height="45" as="geometry" />
        </mxCell>
        <mxCell id="RkQibfMoVkicI0NFBdE6-26" style="edgeStyle=orthogonalEdgeStyle;rounded=0;orthogonalLoop=1;jettySize=auto;html=1;exitX=0.5;exitY=1;exitDx=0;exitDy=0;endArrow=open;endFill=0;" edge="1" parent="RkQibfMoVkicI0NFBdE6-7" source="RkQibfMoVkicI0NFBdE6-21" target="RkQibfMoVkicI0NFBdE6-22">
          <mxGeometry relative="1" as="geometry" />
        </mxCell>
        <mxCell id="RkQibfMoVkicI0NFBdE6-21" value="Thêm đánh giá&lt;div&gt;vào CSDL&lt;/div&gt;" style="html=1;align=center;verticalAlign=top;rounded=1;absoluteArcSize=1;arcSize=10;dashed=0;whiteSpace=wrap;" vertex="1" parent="RkQibfMoVkicI0NFBdE6-7">
          <mxGeometry x="130" y="440" width="108.37" height="40" as="geometry" />
        </mxCell>
        <mxCell id="RkQibfMoVkicI0NFBdE6-34" value="[ không hợp lệ ]" style="text;html=1;align=center;verticalAlign=middle;resizable=0;points=[];autosize=1;strokeColor=none;fillColor=none;" vertex="1" parent="RkQibfMoVkicI0NFBdE6-7">
          <mxGeometry x="11.629999999999995" y="293" width="110" height="30" as="geometry" />
        </mxCell>
        <mxCell id="RkQibfMoVkicI0NFBdE6-35" value="[ hợp lệ ]" style="text;html=1;align=center;verticalAlign=middle;resizable=0;points=[];autosize=1;strokeColor=none;fillColor=none;" vertex="1" parent="RkQibfMoVkicI0NFBdE6-7">
          <mxGeometry x="150.01" y="293" width="70" height="30" as="geometry" />
        </mxCell>
        <mxCell id="RkQibfMoVkicI0NFBdE6-23" value="" style="ellipse;html=1;shape=endState;fillColor=strokeColor;" vertex="1" parent="RkQibfMoVkicI0NFBdE6-7">
          <mxGeometry x="-115" y="520" width="30" height="30" as="geometry" />
        </mxCell>
        <mxCell id="RkQibfMoVkicI0NFBdE6-22" value="Hiển thị&amp;nbsp;&lt;div&gt;đánh giá phim mới&lt;/div&gt;" style="html=1;align=center;verticalAlign=top;rounded=1;absoluteArcSize=1;arcSize=10;dashed=0;whiteSpace=wrap;" vertex="1" parent="RkQibfMoVkicI0NFBdE6-7">
          <mxGeometry x="130" y="515" width="108.37" height="40" as="geometry" />
        </mxCell>
        <mxCell id="RkQibfMoVkicI0NFBdE6-33" style="edgeStyle=orthogonalEdgeStyle;rounded=0;orthogonalLoop=1;jettySize=auto;html=1;exitX=0;exitY=0.5;exitDx=0;exitDy=0;entryX=1;entryY=0.5;entryDx=0;entryDy=0;endArrow=open;endFill=0;" edge="1" parent="RkQibfMoVkicI0NFBdE6-7" source="RkQibfMoVkicI0NFBdE6-22" target="RkQibfMoVkicI0NFBdE6-23">
          <mxGeometry relative="1" as="geometry" />
        </mxCell>
      </root>
    </mxGraphModel>
  </diagram>
</mxfile>
